<svg xmlns="http://www.w3.org/2000/svg" width="1200" height="630" viewBox="0 0 1200 630">
  <rect width="1200" height="630" fill="#0a0a0f"/>
  <rect x="0" y="0" width="6" height="630" fill="#0d9b76"/>
  <rect x="0" y="0" width="1200" height="2" fill="#0d9b76" opacity="0.3"/>
  <rect x="0" y="628" width="1200" height="2" fill="#0d9b76" opacity="0.3"/>

  <!-- Nom -->
  <text x="80" y="180" font-family="Arial" font-size="64" font-weight="bold" fill="#e8e8ef">Joma Alfred Moustaki</text>

  <!-- Titre -->
  <text x="80" y="250" font-family="Arial" font-size="32" fill="#0d9b76">Full-Stack Developer  ·  System &amp; Network Administrator</text>

  <!-- Séparateur -->
  <rect x="80" y="280" width="120" height="3" fill="#0d9b76"/>

  <!-- Description -->
  <text x="80" y="340" font-family="Arial" font-size="26" fill="#6b6b7b">Créateur de DentalPM Madagascar — Plateforme SaaS multi-cliniques</text>
  <text x="80" y="380" font-family="Arial" font-size="26" fill="#6b6b7b">Node.js · React · PostgreSQL · Ansible · Docker · WireGuard</text>

  <!-- Badges projets -->
  <rect x="80"  y="430" width="160" height="38" rx="6" fill="#1a1a24"/>
  <text x="160" y="455" text-anchor="middle" font-family="Arial" font-size="16" fill="#0d9b76">DentalPM SaaS</text>

  <rect x="254" y="430" width="160" height="38" rx="6" fill="#1a1a24"/>
  <text x="334" y="455" text-anchor="middle" font-family="Arial" font-size="16" fill="#6366f1">Homelab IaC</text>

  <rect x="428" y="430" width="180" height="38" rx="6" fill="#1a1a24"/>
  <text x="518" y="455" text-anchor="middle" font-family="Arial" font-size="16" fill="#3b82f6">Network Monitor</text>

  <rect x="622" y="430" width="150" height="38" rx="6" fill="#1a1a24"/>
  <text x="697" y="455" text-anchor="middle" font-family="Arial" font-size="16" fill="#ef4444">CTF Platform</text>

  <rect x="786" y="430" width="170" height="38" rx="6" fill="#1a1a24"/>
  <text x="871" y="455" text-anchor="middle" font-family="Arial" font-size="16" fill="#f59e0b">SaaS Boilerplate</text>

  <!-- URL -->
  <text x="80" y="570" font-family="Arial" font-size="22" fill="#3a3a4a">🌐  jomaalfred.github.io/portfolio</text>
  <text x="80" y="610" font-family="Arial" font-size="20" fill="#3a3a4a">📍  Antananarivo, Madagascar</text>

  <!-- Avatar initiales -->
  <circle cx="1100" cy="220" r="90" fill="#1a1a24"/>
  <circle cx="1100" cy="220" r="86" fill="none" stroke="#0d9b76" stroke-width="2"/>
  <text x="1100" y="240" text-anchor="middle" font-family="Arial" font-size="52" font-weight="bold" fill="#0d9b76">JAM</text>
</svg>
